<?xml version="1.0" standalone="no"?>
<!DOCTYPE svg PUBLIC "-//W3C//DTD SVG 20010904//EN"
 "http://www.w3.org/TR/2001/REC-SVG-20010904/DTD/svg10.dtd">
<svg version="1.0" xmlns="http://www.w3.org/2000/svg"
 width="1080.000000pt" height="1080.000000pt" viewBox="0 0 1080.000000 1080.000000"
 preserveAspectRatio="xMidYMid meet">

<g transform="translate(0.000000,1080.000000) scale(0.100000,-0.100000)"
fill="#000000" stroke="none">
<path d="M4725 6619 c-17 -4 -80 -40 -140 -79 -61 -38 -115 -70 -122 -70 -12
0 -133 26 -166 36 -12 4 -16 12 -12 24 7 23 -28 50 -65 50 -14 0 -38 -8 -55
-18 -29 -18 -33 -18 -114 2 -75 18 -86 18 -110 5 -32 -18 -38 -50 -14 -71 23
-20 295 -138 319 -138 33 0 2 17 -136 76 -168 71 -194 90 -151 114 21 11 32 9
306 -57 83 -19 153 -39 158 -42 4 -4 -74 -58 -173 -120 l-180 -112 -105 21
c-121 25 -155 22 -155 -15 0 -32 41 -58 133 -86 37 -11 67 -23 67 -28 0 -4
-12 -14 -27 -21 -37 -17 -11 -26 28 -10 35 15 30 19 63 -47 29 -59 49 -73 101
-73 47 0 66 34 46 83 -29 71 -27 82 26 112 26 16 108 66 182 112 73 46 135 82
137 80 10 -9 104 -294 104 -313 0 -12 -7 -25 -16 -28 -31 -12 -68 19 -134 112
-78 108 -84 116 -100 110 -12 -4 125 -200 161 -230 24 -20 70 -23 100 -8 23
13 24 43 4 101 -16 45 -16 45 28 70 23 13 22 56 -2 69 -11 5 -33 10 -48 10
-27 0 -31 5 -50 65 l-21 64 101 62 c115 71 177 123 177 150 0 41 -71 60 -145
38z m99 -15 c27 -10 18 -41 -21 -71 -21 -16 -168 -110 -327 -209 -170 -106
-292 -188 -298 -201 -8 -16 -6 -32 6 -63 21 -52 20 -67 -3 -80 -32 -17 -52 0
-82 66 -16 35 -39 70 -52 78 -12 9 -60 26 -105 39 -97 28 -113 40 -90 63 15
15 24 15 116 -6 l100 -23 44 23 c24 12 95 55 158 95 350 221 426 269 454 281
33 14 75 18 100 8z m-575 -58 c16 -19 0 -27 -38 -20 -32 7 -40 19 -18 27 23
10 45 7 56 -7z m448 -342 c8 -22 -27 -50 -39 -31 -4 6 -8 20 -8 30 0 22 38 23
47 1z"/>
<path d="M5104 6443 c-8 -32 -25 -89 -36 -128 -31 -113 -31 -114 10 -29 22 44
55 105 74 135 19 30 38 60 42 67 5 9 -4 12 -33 12 l-40 0 -17 -57z"/>
<path d="M5256 6381 c18 -65 38 -162 45 -215 l13 -96 52 0 53 0 -31 83 c-16
45 -51 141 -77 212 -38 104 -51 131 -68 133 -19 3 -19 -1 13 -117z"/>
<path d="M5480 6486 c-6 -8 -10 -25 -8 -38 2 -17 10 -23 28 -23 18 0 26 6 28
23 3 22 -13 52 -28 52 -4 0 -13 -7 -20 -14z"/>
<path d="M5220 6391 c0 -55 -20 -91 -68 -124 -21 -15 -52 -41 -67 -58 l-29
-30 29 15 c17 8 58 17 92 21 74 8 78 16 62 132 -12 89 -19 105 -19 44z"/>
<path d="M3943 6399 c-30 -19 -43 -39 -27 -39 13 0 84 44 84 52 0 14 -24 9
-57 -13z"/>
<path d="M3988 6362 c-74 -44 -92 -62 -67 -62 20 0 159 92 153 101 -7 12 2 15
-86 -39z"/>
<path d="M5746 6371 c-19 -20 -51 -95 -60 -136 -6 -29 -5 -29 14 7 33 62 90
85 141 58 17 -10 19 -7 19 24 0 39 -8 46 -61 56 -29 6 -42 3 -53 -9z"/>
<path d="M5977 6380 c-16 -5 -35 -15 -44 -22 -26 -21 -53 -89 -53 -133 0 -44
28 -112 54 -134 15 -13 16 -12 6 15 -22 58 49 264 92 264 9 0 8 3 -2 10 -17
11 -16 11 -53 0z"/>
<path d="M6280 6385 c-8 -2 -32 -6 -52 -10 -36 -6 -38 -8 -38 -45 0 -22 1 -40
3 -40 1 0 24 11 51 25 27 14 71 28 98 31 42 6 46 8 31 19 -20 14 -70 25 -93
20z"/>
<path d="M6522 6370 c-17 -11 -36 -29 -43 -42 -9 -19 -9 -21 2 -10 25 23 127
12 212 -23 14 -6 17 -1 17 33 l0 41 -47 6 c-27 3 -62 7 -79 9 -19 3 -44 -3
-62 -14z"/>
<path d="M6847 6380 c-16 -5 -35 -15 -44 -22 -26 -21 -53 -89 -53 -133 0 -44
28 -112 54 -134 15 -13 16 -12 6 15 -22 58 49 264 92 264 9 0 8 3 -2 10 -17
11 -16 11 -53 0z"/>
<path d="M5497 6373 c-4 -3 -7 -36 -7 -72 0 -61 -19 -171 -35 -213 -6 -16 -1
-18 40 -18 l46 0 -6 123 c-9 176 -15 204 -38 180z"/>
<path d="M5606 6298 c12 -196 16 -228 28 -228 9 0 15 29 19 98 4 53 13 122 22
152 8 30 15 56 15 58 0 1 -20 2 -45 2 l-44 0 5 -82z"/>
<path d="M6078 6342 c3 -23 -1 -39 -13 -52 -18 -20 -17 -20 28 -20 39 0 45 2
40 19 -3 10 -17 34 -32 52 l-28 33 5 -32z"/>
<path d="M6948 6342 c3 -23 -1 -39 -13 -52 -18 -20 -17 -20 28 -20 39 0 45 2
40 19 -3 10 -17 34 -32 52 l-28 33 5 -32z"/>
<path d="M6395 6275 c-3 -33 -14 -93 -24 -132 l-17 -73 44 0 45 0 -6 105 c-4
59 -13 118 -21 133 -14 26 -14 26 -21 -33z"/>
<path d="M6476 6273 c13 -47 27 -53 108 -47 42 4 75 8 74 10 -2 1 -36 7 -76
12 -42 6 -82 18 -92 27 -17 16 -18 16 -14 -2z"/>
<path d="M6244 6273 c-64 -12 -94 -118 -46 -165 l22 -22 0 24 c0 42 46 129 75
142 24 11 25 13 8 19 -20 8 -27 8 -59 2z"/>
<path d="M6055 6197 c8 -39 -16 -104 -40 -113 -8 -3 -15 -10 -15 -15 0 -12 48
-1 78 18 26 16 61 85 62 121 0 20 -5 22 -45 22 l-46 0 6 -33z"/>
<path d="M6925 6197 c8 -39 -16 -104 -40 -113 -8 -3 -15 -10 -15 -15 0 -12 48
-1 78 18 26 16 61 85 62 121 0 20 -5 22 -45 22 l-46 0 6 -33z"/>
<path d="M6339 6178 c-17 -42 -67 -98 -88 -99 -10 0 -7 -4 9 -10 21 -9 28 -6
45 15 21 26 58 116 51 123 -2 2 -9 -11 -17 -29z"/>
<path d="M6712 6178 c-1 -10 -13 -25 -27 -34 -31 -20 -126 -15 -174 9 -31 15
-31 15 -31 -12 0 -47 20 -62 95 -71 74 -9 87 -6 123 33 18 19 22 33 19 58 -2
19 -5 26 -5 17z"/>
<path d="M5027 6116 l-16 -46 46 0 c43 0 45 1 30 18 -8 9 -22 30 -30 45 l-15
28 -15 -45z"/>
<path d="M4388 6052 c-74 -45 -92 -62 -66 -62 20 0 158 91 153 101 -8 12 1 16
-87 -39z"/>
<path d="M4432 6016 c-19 -14 -29 -27 -23 -30 11 -7 81 33 81 47 0 13 -25 6
-58 -17z"/>
</g>
</svg>
