<?xml version="1.0" standalone="no"?>
<!DOCTYPE svg PUBLIC "-//W3C//DTD SVG 20010904//EN"
 "http://www.w3.org/TR/2001/REC-SVG-20010904/DTD/svg10.dtd">
<svg version="1.0" xmlns="http://www.w3.org/2000/svg"
 width="1080.000000pt" height="1080.000000pt" viewBox="0 0 1080.000000 1080.000000"
 preserveAspectRatio="xMidYMid meet">

<g transform="translate(0.000000,1080.000000) scale(0.100000,-0.100000)"
fill="#000000" stroke="none">
<path d="M4725 6619 c-17 -4 -80 -40 -140 -79 -61 -38 -115 -70 -122 -70 -12
0 -133 26 -166 36 -12 4 -16 12 -12 24 7 23 -28 50 -65 50 -14 0 -38 -8 -55
-18 -29 -18 -33 -18 -114 2 -75 18 -86 18 -110 5 -32 -18 -38 -50 -14 -71 23
-20 295 -138 319 -138 33 0 2 17 -136 76 -168 71 -194 90 -151 114 21 11 32 9
306 -57 83 -19 153 -39 158 -42 4 -4 -74 -58 -173 -120 l-180 -112 -105 21
c-121 25 -155 22 -155 -15 0 -32 41 -58 133 -86 37 -11 67 -23 67 -28 0 -4
-12 -14 -27 -21 -37 -17 -11 -26 28 -10 35 15 30 19 63 -47 29 -59 49 -73 101
-73 47 0 66 34 46 83 -29 71 -27 82 26 112 26 16 108 66 182 112 73 46 135 82
137 80 10 -9 104 -294 104 -313 0 -12 -7 -25 -16 -28 -31 -12 -68 19 -134 112
-78 108 -84 116 -100 110 -12 -4 125 -200 161 -230 24 -20 70 -23 100 -8 23
13 24 43 4 101 -16 45 -16 45 28 70 23 13 22 56 -2 69 -11 5 -33 10 -48 10
-27 0 -31 5 -50 65 l-21 64 101 62 c115 71 177 123 177 150 0 41 -71 60 -145
38z m99 -15 c27 -10 18 -41 -21 -71 -21 -16 -168 -110 -327 -209 -170 -106
-292 -188 -298 -201 -8 -16 -6 -32 6 -63 21 -52 20 -67 -3 -80 -32 -17 -52 0
-82 66 -16 35 -39 70 -52 78 -12 9 -60 26 -105 39 -97 28 -113 40 -90 63 15
15 24 15 116 -6 l100 -23 44 23 c24 12 95 55 158 95 350 221 426 269 454 281
33 14 75 18 100 8z m-575 -58 c16 -19 0 -27 -38 -20 -32 7 -40 19 -18 27 23
10 45 7 56 -7z m448 -342 c8 -22 -27 -50 -39 -31 -4 6 -8 20 -8 30 0 22 38 23
47 1z"/>
<path d="M3943 6399 c-30 -19 -43 -39 -27 -39 13 0 84 44 84 52 0 14 -24 9
-57 -13z"/>
<path d="M3988 6362 c-74 -44 -92 -62 -67 -62 20 0 159 92 153 101 -7 12 2 15
-86 -39z"/>
<path d="M4388 6052 c-74 -45 -92 -62 -66 -62 20 0 158 91 153 101 -8 12 1 16
-87 -39z"/>
<path d="M4432 6016 c-19 -14 -29 -27 -23 -30 11 -7 81 33 81 47 0 13 -25 6
-58 -17z"/>
</g>
</svg>
